<svg xmlns="http://www.w3.org/2000/svg" viewBox="0 0 208.28 119.4"><defs><style>.cls-1,.cls-3{fill:#1b1b1b;}.cls-2{fill:#e21f27;}.cls-3{font-size:104.5px;font-family:Dirga-Extra-Bold, Dirga;font-weight:700;}</style></defs><g id="Layer_2" data-name="Layer 2"><g id="Layer_2-2" data-name="Layer 2"><polygon class="cls-1" points="43.05 10.69 43.05 29.01 11.89 29.01 16.33 10.69 43.05 10.69"/><polygon class="cls-1" points="43.05 50.54 43.05 68.86 0 68.86 6.13 50.54 43.05 50.54"/><polygon class="cls-1" points="43.05 90.39 43.05 108.7 9.17 108.7 13.99 90.39 43.05 90.39"/><path class="cls-2" d="M51.82,46.23c0,12-5,12.94-7.48,13.34v.26c2.49.4,7.48,1.32,7.48,13.34V99.58c0,5.55,1.35,7.93,3.35,7.93H57c1.85,0,3.21,1.85,3.21,5.94,0,3.83-1.36,6-3.21,6H51.68c-6.2,0-9.27-5.42-9.27-17.57V74.89c0-8.06-1.85-8.85-3.63-8.85-2.35,0-3.42-3.17-3.42-6.34s1.07-6.34,3.42-6.34c1.78,0,3.63-.79,3.63-8.85V17.57C42.41,5.42,45.48,0,51.68,0H57c1.85,0,3.21,2.11,3.21,5.94,0,4.1-1.36,6-3.21,6H55.17c-2,0-3.35,2.38-3.35,7.92Z"/><polygon class="cls-1" points="165.23 108.7 165.23 90.39 196.38 90.39 191.95 108.7 165.23 108.7"/><polygon class="cls-1" points="165.23 68.86 165.23 50.54 208.28 50.54 202.15 68.86 165.23 68.86"/><polygon class="cls-1" points="165.23 29.01 165.23 10.69 199.1 10.69 194.28 29.01 165.23 29.01"/><path class="cls-2" d="M156.46,73.17c0-12,5-12.94,7.48-13.34v-.26c-2.49-.4-7.48-1.32-7.48-13.34V19.81c0-5.55-1.35-7.92-3.35-7.92h-1.78c-1.85,0-3.21-1.85-3.21-5.95,0-3.83,1.36-5.94,3.21-5.94h5.27c6.2,0,9.27,5.42,9.27,17.57V44.51c0,8.06,1.85,8.85,3.63,8.85,2.35,0,3.42,3.17,3.42,6.34S171.85,66,169.5,66c-1.78,0-3.63.79-3.63,8.85v26.94c0,12.15-3.07,17.57-9.27,17.57h-5.27c-1.85,0-3.21-2.12-3.21-6,0-4.09,1.36-5.94,3.21-5.94h1.78c2,0,3.35-2.38,3.35-7.93Z"/><text class="cls-3" transform="translate(59.2 92.62)">A</text></g></g></svg>